HIERARCHY
ROOT Hips
{
	OFFSET 0.00000 0.00000 0.00000
	CHANNELS 6 Xposition Yposition Zposition Zrotation Yrotation Xrotation 
	JOINT LHipJoint
	{
		OFFSET 0 0 0
		CHANNELS 3 Zrotation Yrotation Xrotation
		JOINT LeftHip
		{
			OFFSET 1.66553 -1.82942 0.76350
			CHANNELS 3 Zrotation Yrotation Xrotation
			JOINT LeftKnee
			{
				OFFSET 2.41740 -6.64177 0.00000
				CHANNELS 3 Zrotation Yrotation Xrotation
				JOINT LeftAnkle
				{
					OFFSET 2.71614 -7.46254 0.00000
					CHANNELS 3 Zrotation Yrotation Xrotation
					JOINT LeftToe
					{
						OFFSET 0.08005 -0.21993 1.82495
						CHANNELS 3 Zrotation Yrotation Xrotation
						End Site
						{
							OFFSET 0.00000 -0.00000 0.93441
						}
					}
				}
			}
		}
	}
	JOINT RHipJoint
	{
		OFFSET 0 0 0
		CHANNELS 3 Zrotation Yrotation Xrotation
		JOINT RightHip
		{
			OFFSET -1.63725 -1.82942 0.76350
			CHANNELS 3 Zrotation Yrotation Xrotation
			JOINT RightKnee
			{
				OFFSET -2.40538 -6.60872 0.00000
				CHANNELS 3 Zrotation Yrotation Xrotation
				JOINT RightAnkle
				{
					OFFSET -2.73312 -7.50919 0.00000
					CHANNELS 3 Zrotation Yrotation Xrotation
					JOINT RightToe
					{
						OFFSET -0.15567 -0.42769 1.93504
						CHANNELS 3 Zrotation Yrotation Xrotation
						End Site
						{
							OFFSET -0.00000 -0.00000 1.00100
						}
					}
				}
			}
		}
	}
	JOINT lowerback
	{
		OFFSET 0 0 0
		CHANNELS 3 Zrotation Yrotation Xrotation
		JOINT Chest
		{
			OFFSET 0.00326 2.30118 -0.13017
			CHANNELS 3 Zrotation Yrotation Xrotation
			JOINT Chest2
			{
				OFFSET 0.02887 2.30677 0.00834
				CHANNELS 3 Zrotation Yrotation Xrotation
				JOINT lowerneck
				{
					OFFSET 0 0 0
					CHANNELS 3 Zrotation Yrotation Xrotation
					JOINT Neck
					{
						OFFSET 0.12946 1.68326 0.00713
						CHANNELS 3 Zrotation Yrotation Xrotation
						JOINT Head
						{
							OFFSET -0.24364 1.67243 -0.16079
							CHANNELS 3 Zrotation Yrotation Xrotation
							End Site
							{
								OFFSET -0.09229 1.70819 -0.06383
							}
						}
					}
				}
				JOINT LeftCollar
				{
					OFFSET 0 0 0
					CHANNELS 3 Zrotation Yrotation Xrotation
					JOINT LeftShoulder
					{
						OFFSET 3.28104 0.69567 -0.00556
CHANNELS 3 Zrotation Xrotation Yrotation
						JOINT LeftElbow
						{
OFFSET 0 -5.707060 -0.000000
CHANNELS 3 Zrotation Xrotation Yrotation
							JOINT LeftWrist
							{
OFFSET 0 -3.332430 0.000000
CHANNELS 3 Zrotation Xrotation Yrotation
								JOINT lhand
								{
									OFFSET 0 0 0
CHANNELS 3 Zrotation Xrotation Yrotation
									JOINT LFingers
									{
OFFSET 0 -0.792690 0.000000
CHANNELS 3 Zrotation Xrotation Yrotation
										End Site
										{
OFFSET 0 -0.639090 0.000000
										}
									}
								}
								JOINT LThumb
								{
OFFSET 0 0.000000 0.000000
CHANNELS 3 Zrotation Xrotation Yrotation
									End Site
									{
OFFSET 0 -0.648840 0.648840
									}
								}
							}
						}
					}
				}
				JOINT RightCollar
				{
					OFFSET 0 0 0
					CHANNELS 3 Zrotation Yrotation Xrotation
					JOINT RightShoulder
					{
						OFFSET -3.40955 0.64424 0.14010
CHANNELS 3 Zrotation Xrotation Yrotation
						JOINT RightElbow
						{
OFFSET 0 -5.881760 -0.000000
CHANNELS 3 Zrotation Xrotation Yrotation
							JOINT RightWrist
							{
OFFSET 0 -3.281560 0.000000
CHANNELS 3 Zrotation Xrotation Yrotation
								JOINT rhand
								{
									OFFSET 0 0 0
CHANNELS 3 Zrotation Xrotation Yrotation
									JOINT RFingers
									{
OFFSET 0 -0.863130 0.000000
CHANNELS 3 Zrotation Xrotation Yrotation
										End Site
										{
OFFSET 0 -0.695870 0.000000
										}
									}
								}
								JOINT RThumb
								{
OFFSET 0 0.000000 0.000000
CHANNELS 3 Zrotation Xrotation Yrotation
									End Site
									{
OFFSET 0 -0.706500 0.706500
									}
								}
							}
						}
					}
				}
			}
		}
	}
}
MOTION
Frames: 7
Frame Time: 0.008333333333333333
18.116033 16.706390 -2.487255 -0.483863 19.887564 47.289005 0.000000 0.000000 0.000000 18.738490 -17.515347 -79.181169 3.494088 11.454902 33.829714 0.034745 -4.161544 -4.143283 4.173388 -12.387506 -37.117162 0.000000 0.000000 0.000000 -12.436652 14.841306 -57.583743 -3.902314 -12.029203 35.835481 -1.418483 -9.170224 -27.488445 -0.468329 4.388006 -12.171055 1.383759 -1.040631 40.813749 -3.611868 -1.254506 3.059975 -4.181799 -0.676675 -16.691171 12.841704 8.403647 1.309082 -28.545450 6.814113 -33.258240 -13.622787 5.404870 -8.423128 0.000000 0.000000 0.000000 22.176872 -32.036139 -39.922623 103.697124 -59.277767 71.833265 0.516059 -6.565112 -37.812164 0.000000 0.000000 0.000000 -7.125000 0.000000 0.000000 -41.418569 62.928870 19.747080 0.000000 0.000000 0.000000 -11.775109 -45.407960 39.165072 -67.895916 -58.070859 -40.981286 23.095014 -181.075999 -15.590523 0.000000 0.000000 0.000000 7.125000 0.000000 0.000000 3.060424 13.122633 2.288937
18.261344 16.633072 -2.594573 -0.508922 19.836140 47.176040 0.000000 0.000000 0.000000 18.239312 -17.592676 -80.725024 3.895842 12.020420 35.804317 0.028309 -5.047015 -4.403251 4.167401 -12.379895 -37.089507 0.000000 0.000000 0.000000 -13.251140 14.841801 -57.346909 -3.893963 -12.017929 35.795420 -1.434920 -9.142775 -27.584370 -0.310264 3.578557 -9.894193 2.439314 -1.109637 40.805065 -5.038765 -1.132347 3.404037 -6.412018 -0.727143 -16.365066 14.841985 7.582875 0.104295 -27.623917 5.936790 -33.191369 -13.570118 4.553940 -8.348277 0.000000 0.000000 0.000000 19.227472 -27.869496 -44.773377 125.059717 -54.802961 89.832695 -6.946029 -11.383945 -38.473389 0.000000 0.000000 0.000000 -7.125000 0.000000 0.000000 -49.252546 61.457588 22.721389 0.000000 0.000000 0.000000 -13.313308 -41.968772 33.811593 -59.852386 -56.269424 -34.218513 23.988681 -181.959637 -14.572385 0.000000 0.000000 0.000000 7.125000 0.000000 0.000000 2.389126 14.106085 1.736312
18.413949 16.557102 -2.647844 -0.800554 20.025088 45.859457 0.000000 0.000000 0.000000 17.140969 -17.580195 -81.619507 4.578763 12.892959 38.969343 0.018332 -6.650209 -5.116592 4.357922 -12.622035 -37.969687 0.000000 0.000000 0.000000 -13.181515 15.047820 -56.130809 -4.034905 -12.206717 36.467224 -1.295617 -10.847342 -27.899401 -0.801177 5.711806 -15.950773 2.598789 -0.874705 42.156597 -5.912910 -0.912505 3.628109 -7.613306 -0.663753 -16.591346 14.627048 6.985166 0.339795 -26.108794 5.422451 -33.183860 -12.938092 4.164350 -8.662848 0.000000 0.000000 0.000000 19.064770 -27.599090 -45.849337 135.722114 -50.409169 98.318972 -2.638398 -9.249853 -34.119547 0.000000 0.000000 0.000000 -7.125000 0.000000 0.000000 -40.096552 59.336673 15.562959 0.000000 0.000000 0.000000 -11.924439 -36.345902 30.976729 -48.630017 -52.426556 -25.084491 18.968940 -181.425698 -8.028625 0.000000 0.000000 0.000000 7.125000 0.000000 0.000000 5.712198 21.511423 3.231287
18.634877 16.447936 -2.748234 -1.135884 21.184193 44.728542 0.000000 0.000000 0.000000 14.963296 -17.092276 -83.692925 5.411181 13.832378 42.570225 -0.198789 -10.793709 -3.931631 2.755334 -10.287804 -29.914093 0.000000 0.000000 0.000000 -13.202753 15.061175 -55.261195 -4.340685 -12.600474 37.890680 -1.531664 -9.791450 -28.727843 -0.174918 2.630782 -7.256116 3.123331 -1.167067 41.826292 -5.883550 -1.020741 3.773063 -7.798302 -0.727911 -16.326103 14.909494 6.858887 0.962373 -25.872503 5.396450 -33.068100 -12.923670 4.104137 -8.754613 0.000000 0.000000 0.000000 20.371471 -29.630894 -42.710897 134.853641 -50.839926 97.647825 5.956814 -2.980968 -32.978556 0.000000 0.000000 0.000000 -7.125000 0.000000 0.000000 -30.574239 60.420222 12.158395 0.000000 0.000000 0.000000 -11.275253 -29.750997 32.623810 -48.999344 -52.583823 -25.377251 15.015433 -179.836190 -6.519980 0.000000 0.000000 0.000000 7.125000 0.000000 0.000000 8.631645 23.247729 4.574171
19.052410 16.440841 -2.951837 -2.079824 20.087131 42.985943 0.000000 0.000000 0.000000 12.789604 -16.587768 -83.237515 5.846350 14.277809 44.362009 -0.292127 -12.806707 -4.451975 2.411581 -9.675315 -27.931691 0.000000 0.000000 0.000000 -14.605489 16.859500 -54.099265 -4.441878 -12.726187 38.352073 -0.853355 -13.064769 -26.613343 -0.488217 4.466233 -12.394374 0.616174 -1.317920 42.040168 -4.483361 -2.085304 3.345568 -4.347841 -0.979111 -16.870800 13.235707 7.860482 2.375172 -26.341712 6.531604 -33.916783 -12.979574 4.969847 -9.106124 0.000000 0.000000 0.000000 23.024516 -28.819637 -34.636318 133.189896 -51.624960 96.350571 -4.707343 4.811424 -40.556309 0.000000 0.000000 0.000000 -7.125000 0.000000 0.000000 -50.240128 63.423795 25.674716 0.000000 0.000000 0.000000 -9.813792 -24.179986 37.748995 -58.818974 -55.985545 -33.360602 14.064073 -178.902282 -12.326741 0.000000 0.000000 0.000000 7.125000 0.000000 0.000000 9.144732 17.382618 6.074214
19.615279 16.554485 -3.251111 -3.692794 16.262279 44.875889 0.000000 0.000000 0.000000 10.451003 -13.789103 -85.598231 5.893617 14.324431 44.553241 -0.411406 -13.563089 -3.072127 2.331514 -9.524822 -27.451355 0.000000 0.000000 0.000000 -17.661203 18.064638 -59.521141 -4.783394 -13.135492 39.878030 -0.526237 -11.331313 -22.118972 -0.066596 -1.662452 4.573779 -1.955053 -0.178596 39.047794 -3.098389 -1.579163 2.224984 -1.682994 -0.594238 -16.961235 13.033370 8.051424 3.559701 -28.237983 6.301244 -33.854901 -13.864805 5.110539 -9.242911 0.000000 0.000000 0.000000 24.549107 -28.007873 -30.845882 133.710429 -51.384832 96.757938 -7.572393 12.754951 -38.402631 0.000000 0.000000 0.000000 -7.125000 0.000000 0.000000 -49.717186 61.254609 22.745362 0.000000 0.000000 0.000000 -10.857663 -19.710950 38.948446 -66.384310 -57.783976 -39.700389 19.770834 -177.060187 -15.712377 0.000000 0.000000 0.000000 7.125000 0.000000 0.000000 5.301184 13.387576 3.946333
19.632695 16.619896 -3.545445 -2.727812 15.757195 44.577961 0.000000 0.000000 0.000000 8.020989 -13.936251 -84.697035 5.231363 13.639642 41.812704 -0.547455 -14.318269 -1.196801 3.113647 -10.876733 -31.865268 0.000000 0.000000 0.000000 -12.878738 16.087992 -64.593918 -9.198832 -16.932930 56.773618 -1.363815 -3.927887 -23.784937 -0.042843 1.319096 -3.627511 -2.232785 -0.503184 37.142025 -3.321785 -2.103987 1.811930 -1.521759 -0.810592 -16.860603 12.347193 8.037069 3.933396 -27.921619 6.223882 -34.127666 -13.679821 5.120902 -9.512118 0.000000 0.000000 0.000000 28.990973 -25.464344 -29.579247 136.569931 -49.975595 98.970418 -0.348313 14.286895 -34.209661 0.000000 0.000000 0.000000 -7.125000 0.000000 0.000000 -38.015940 59.940711 15.158720 0.000000 0.000000 0.000000 -8.464733 -15.182357 40.851133 -70.215788 -58.468140 -42.954455 23.447028 -175.021060 -16.628359 0.000000 0.000000 0.000000 7.125000 0.000000 0.000000 2.898584 11.964065 2.236393
